<svg xmlns="http://www.w3.org/2000/svg" viewBox="0 0 780 230">
  <g fill="none" fill-rule="evenodd">
    <g transform="translate(10 24)">
      <circle fill="#A2D8CB" cx="235.7" cy="124.5" r="55"/>
      <circle fill="#00A5A5" cx="66.5"  cy="113.6" r="65.9"/>
      <circle fill="#0094BA" cx="151.5" cy="73.7"  r="73.5"/>
      <path   fill="#1FBBB7" d="M235.7 179.5c-1.2-45.5-38.4-82-84.2-82-45.8 0-83 36.5-84.2 82h168.4z"/>
      <path   fill="#018389" d="M131 100c-5.2-24.8-24.4-44.5-48.9-50.5-2.6 7.6-4.1 15.7-4.1 24.1 0 17.5 6.1 33.5 16.3 46.2 10.2-9.4 22.8-16.3 36.7-19.8z"/>
      <path   fill="#03939F" d="M208.6 119.9c10.2-12.6 16.3-28.7 16.3-46.2 0-1.1 0-2.1-.1-3.2-18.5 3.7-33.6 16.6-40.4 33.7 9.1 3.8 17.2 9.2 24.2 15.7z"/>
      <path   fill="#059D88" d="M94.3 119.9c-16.1 14.9-26.4 36.1-27 59.6 25.7-.3 47.8-15.3 58.4-37-12.4-4.6-23.2-12.5-31.4-22.6z"/>
      <path   fill="#008C83" d="M208.6 119.9c-7-6.5-15.2-11.8-24.1-15.6-2.5 6.3-3.9 13.1-3.9 20.3 0 5.4.8 10.7 2.3 15.6 10-4.8 18.8-11.8 25.7-20.3z"/>
      <path   fill="#01B29D" d="M208.6 119.9c-6.9 8.5-15.7 15.5-25.7 20.3 6.7 22.8 27.8 39.4 52.8 39.4-.6-23.6-10.9-44.8-27.1-59.7z"/>
      <path   fill="#008072" d="M125.7 142.5c4.3-8.7 6.7-18.5 6.7-28.9 0-4.7-.5-9.2-1.4-13.6-13.9 3.5-26.4 10.4-36.6 19.8 8.1 10.2 18.9 18.1 31.3 22.7z"/>
      <path   fill="#018F93" d="M180.6 124.5c0-7.2 1.4-14 3.9-20.2-10.1-4.3-21.3-6.8-33-6.8-7.1 0-13.9.9-20.5 2.5.9 4.4 1.4 8.9 1.4 13.6 0 10.4-2.4 20.2-6.7 28.9 8 3 16.7 4.7 25.8 4.7 11.2 0 21.9-2.5 31.4-7.1-1.5-4.9-2.3-10.2-2.3-15.6z"/>
    </g>
    <path fill="white" d="M335 105.8h8.1V120H335v-14.2zm0 25.3h8.1v72.8H335v-72.8zm83.9 39.4c-1.3 22.2-11.5 35.1-29 35.1-20.2 0-31.4-15.5-31.4-50.6s11.1-50.6 31.4-50.6c19.9 0 28.3 14.2 28.3 30.3h-8.8c0-13.5-6.7-22.9-19.2-22.9-14.2 0-22.6 11.5-22.6 43.1S376 198 390.2 198c12.5 0 19.2-10.5 20.2-27.6l8.5.1zm33.4-41.1c16.2 0 25.3 12.8 25.3 38.1s-9.1 38.1-25.3 38.1c-16.2 0-25.3-12.8-25.3-38.1s9.1-38.1 25.3-38.1zm0 69.5c9.1 0 16.5-8.1 16.5-31.4 0-23.3-7.1-31.4-16.5-31.4-9.1 0-16.5 8.1-16.5 31.4 0 23.3 7 31.4 16.5 31.4zm37.1-67.8h7.4v10.1h.3c4-8.1 11.1-11.8 18.5-11.8 11.1 0 18.5 5.7 18.5 19.6v55.3H526v-52.9c0-10.1-4-14.8-12.5-14.8-9.8 0-16.2 7.4-16.2 18.5v49.2h-8.1l.2-73.2zm64 6.7h-10.1v-6.7h10.1v-20.2h8.1v20.2h12.8v6.7h-12.8v52.3c0 5.7 2.4 7.8 7.8 7.8 1.7 0 3.4-.3 5.1-.7v6.7c-1 .7-3 .7-5.7.7-11.1 0-15.5-3-15.5-12.8v-53.9h.2v-.1zm30.3-6.7h8.1v11.5h.3c3-8.1 9.8-13.1 18.5-13.1 1 0 2 0 3 .3v8.1c-1.3-.3-2.7-.3-4-.3-9.1 0-17.5 6.7-17.5 20.9V204H584l-.3-72.9zm36.5 21.6c0-14.8 7.1-23.3 22.6-23.3 15.2 0 20.6 7.8 20.6 19.2v43.1c0 4 1.3 6.1 4.4 6.1h2.4v6.1c-1.3.7-2.7.7-3.7.7-6.4 0-10.5-1.3-10.5-9.1v-2.4h-.3c-3.4 9.8-10.8 12.5-18.9 12.5-12.8 0-18.5-8.1-18.5-20.6 0-9.8 4.4-17.2 14.8-20.2l15.5-4.4c5.7-1.7 7.1-3 7.1-11.5 0-9.4-5.1-12.8-12.8-12.8-9.8 0-14.2 6.1-14.2 16.5h-8.5v.1zm35 10.1c-1 2.4-5.7 4-9.1 4.7l-6.7 1.7c-8.1 2.4-12.5 6.4-12.5 15.2 0 8.4 4.4 14.2 11.5 14.2 10.1 0 16.9-7.4 16.9-20.6l-.1-15.2zm69.1 16.8c-1.3 15.5-9.8 26-23.3 26-15.5 0-24.6-10.8-24.6-38.1 0-25.3 9.1-38.1 25.3-38.1 13.8 0 21.6 8.4 22.6 23.3h-8.1c-1-11.5-5.4-16.5-14.2-16.5-9.1 0-16.5 5.4-16.5 31.4 0 27.6 7.8 31.4 15.5 31.4 8.4 0 13.8-6.1 15.2-18.9h8.1v-.5zm14.8-41.8H729v-6.7h10.1v-20.2h8.1v20.2H760v6.7h-12.8v52.3c0 5.7 2.4 7.8 7.8 7.8 1.7 0 3.4-.3 5.1-.7v6.7c-1 .7-3 .7-5.7.7-11.1 0-15.5-3-15.5-12.8v-53.9h.2v-.1z"/>
  </g>
</svg>
